REM DISCID B90C650D
REM COMMENT "Morituri"
CATALOG 0602517642256
FILE "data.wav" WAVE
  TRACK 01 AUDIO
    ISRC USUM70839873
    INDEX 01 00:00:00
  TRACK 02 AUDIO
    ISRC USUM70839874
    INDEX 00 06:16:45
    INDEX 01 06:17:49
  TRACK 03 AUDIO
    ISRC USUM70839875
    INDEX 00 10:13:02
    INDEX 01 10:14:60
  TRACK 04 AUDIO
    ISRC USUM70839876
    INDEX 00 14:50:07
    INDEX 01 14:50:17
  TRACK 05 AUDIO
    ISRC USUM70839877
    INDEX 00 17:18:42
    INDEX 01 17:20:47
  TRACK 06 AUDIO
    ISRC USUM70839878
    INDEX 00 19:43:06
    INDEX 01 19:43:10
  TRACK 07 AUDIO
    ISRC USUM70839879
    INDEX 00 24:25:07
    INDEX 01 24:26:41
  TRACK 08 AUDIO
    ISRC USUM70839880
    INDEX 00 28:56:00
    INDEX 01 28:56:09
  TRACK 09 AUDIO
    ISRC USUM70839881
    INDEX 00 32:38:11
    INDEX 01 32:40:45
  TRACK 10 AUDIO
    ISRC USUM70839882
    INDEX 00 36:01:58
    INDEX 01 36:02:04
  TRACK 11 AUDIO
    ISRC USUM70839883
    INDEX 00 40:08:30
    INDEX 01 40:08:53
  TRACK 12 AUDIO
    ISRC USUM70839884
    INDEX 00 43:59:51
    INDEX 01 44:00:27
  TRACK 13 AUDIO
    ISRC USUM70839885
    INDEX 00 48:35:63
    INDEX 01 48:36:71
